<svg width="500" height="440" viewBox="0 0 500 440" fill="none" xmlns="http://www.w3.org/2000/svg">
<g filter="url(#filter0_d_3_207)">
<path d="M169 31.0017C170.454 30.2369 172.018 29.6463 173.65 29.2457L174.6 25.2157L182.36 25.0928L183.48 29.0965C185.125 29.4526 186.709 29.9988 188.19 30.7208L192.11 28.4643L197.7 33.2055L195.27 36.7175C196.142 37.9907 196.814 39.3609 197.27 40.7914L201.86 41.6255L202 48.4388L197.44 49.4134C197.036 50.8581 196.414 52.2489 195.59 53.5488L198.16 56.9993L192.76 61.8985L188.76 59.765C187.31 60.5302 185.749 61.1208 184.12 61.521L183.12 65.551L175.36 65.6739L174.24 61.6703C172.598 61.3141 171.018 60.7679 169.54 60.046L165.61 62.3024L160 57.57L162.43 54.058C161.559 52.7815 160.886 51.4084 160.43 49.9753L155.84 49.0973L155.7 42.284L160.26 41.3007C160.666 39.8564 161.288 38.4658 162.11 37.1653L159.54 33.7147L165 28.8682L169 31.0017ZM173.14 40.0802C171.995 41.1204 171.227 42.4352 170.934 43.8584C170.64 45.2817 170.833 46.7495 171.489 48.0762C172.146 49.403 173.235 50.529 174.621 51.3121C176.006 52.0951 177.624 52.5 179.271 52.4754C180.919 52.4508 182.521 51.998 183.875 51.1741C185.229 50.3503 186.274 49.1924 186.879 47.8468C187.483 46.5013 187.62 45.0286 187.271 43.6149C186.923 42.2012 186.104 40.91 184.92 39.9046C184.132 39.2327 183.201 38.7041 182.179 38.3491C181.158 37.9941 180.067 37.8198 178.968 37.8361C177.87 37.8524 176.786 38.059 175.779 38.4442C174.772 38.8293 173.862 39.3853 173.1 40.0802H173.14Z" fill="#E0E0E0"/>
<path d="M170.8 257.122C171.637 256.679 172.539 256.336 173.48 256.103L174.03 253.777L178.51 253.706L179.15 256.016C180.1 256.217 181.015 256.53 181.87 256.946L184.13 255.647L187.35 258.377L186 260.388C186.505 261.123 186.895 261.915 187.16 262.741L189.81 263.224L189.89 267.157L187.26 267.719C187.03 268.554 186.674 269.357 186.2 270.107L187.68 272.092L184.57 274.919L182.26 273.69C181.421 274.132 180.52 274.477 179.58 274.717L179 277.07L174.52 277.14L173.88 274.831C172.93 274.629 172.015 274.316 171.16 273.9L168.9 275.2L165.68 272.469L167.08 270.441C166.576 269.704 166.183 268.913 165.91 268.088L163.27 267.605L163.19 263.672L165.82 263.11C166.05 262.276 166.406 261.472 166.88 260.722L165.4 258.737L168.51 255.91L170.82 257.139L170.8 257.122ZM173.19 262.39C172.528 262.99 172.083 263.75 171.913 264.572C171.742 265.395 171.854 266.243 172.233 267.009C172.612 267.776 173.242 268.427 174.042 268.879C174.843 269.332 175.778 269.565 176.73 269.55C177.682 269.536 178.608 269.273 179.389 268.796C180.171 268.319 180.774 267.65 181.122 266.872C181.47 266.094 181.548 265.242 181.344 264.426C181.141 263.609 180.666 262.864 179.98 262.284C179.529 261.897 178.996 261.592 178.41 261.386C177.825 261.18 177.199 261.078 176.568 261.084C175.938 261.091 175.315 261.206 174.735 261.424C174.156 261.642 173.63 261.958 173.19 262.355V262.39Z" fill="#E0E0E0"/>
<path d="M73.28 52.6795C73.8522 52.3757 74.4675 52.1396 75.11 51.9771L75.49 50.388H78.54L79 51.9157C79.6481 52.0602 80.2729 52.2756 80.86 52.5566L82.4 51.6786L84.6 53.54L83.6 54.9272C83.946 55.4296 84.215 55.9698 84.4 56.534L86.21 56.8676V59.5016L84.41 59.8879C84.2534 60.4579 84.0113 61.007 83.69 61.521L84.69 62.8731L82.57 64.8047L80.99 63.9267C80.4178 64.2305 79.8025 64.4667 79.16 64.6291L78.78 66.2183H75.78L75.34 64.6379C74.6908 64.5004 74.0654 64.2878 73.48 64.0057L71.94 64.8837L69.74 63.0136L70.74 61.6351C70.394 61.1328 70.125 60.5925 69.94 60.0284L68.13 59.6948L68.08 57.0608L69.87 56.6744C70.0346 56.1054 70.2799 55.5568 70.6 55.0414L69.6 53.6892L71.72 51.7576L73.3 52.6356L73.28 52.6795ZM74.91 56.253C74.4596 56.6627 74.1576 57.1805 74.0422 57.7409C73.9269 58.3013 74.0034 58.8791 74.262 59.4014C74.5206 59.9236 74.9498 60.3668 75.4953 60.6749C76.0407 60.983 76.678 61.1422 77.3265 61.1324C77.975 61.1226 78.6056 60.9442 79.1387 60.6198C79.6717 60.2953 80.0832 59.8394 80.3212 59.3096C80.5592 58.7799 80.6129 58.2001 80.4757 57.6435C80.3384 57.087 80.0163 56.5786 79.55 56.1828C79.2402 55.9197 78.8743 55.7129 78.4734 55.574C78.0725 55.4352 77.6443 55.3671 77.2134 55.3736C76.7825 55.3801 76.3573 55.4612 75.962 55.612C75.5668 55.7629 75.2093 55.9807 74.91 56.253Z" fill="#E0E0E0"/>
<path d="M222.56 47.034C223.688 46.4354 224.902 45.9718 226.17 45.6555L226.91 42.5211L232.91 42.4245L233.78 45.5414C235.062 45.8167 236.297 46.2419 237.45 46.8057L240.45 45.0497L244.88 48.79L243 51.4942C243.684 52.4867 244.212 53.5559 244.57 54.6726L248.15 55.3223L248.25 60.5903L244.71 61.3542C244.388 62.4858 243.897 63.5752 243.25 64.594L245.25 67.2807L241.06 71.0912L237.94 69.4318C236.811 70.0285 235.597 70.492 234.33 70.8102L233.58 73.9447L227.58 74.0413L226.71 70.9244C225.414 70.6556 224.166 70.2332 223 69.6688L220 71.4248L215.65 67.746L217.54 65.0067C216.86 64.0125 216.332 62.9438 215.97 61.8283L212.4 61.1786L212.29 55.9106L215.84 55.1467C216.154 54.0237 216.638 52.9428 217.28 51.9332L215.28 49.2466L219.47 45.436L222.56 47.034ZM225.78 54.058C224.89 54.8682 224.294 55.8918 224.067 56.9995C223.84 58.1071 223.993 59.2489 224.505 60.2805C225.017 61.3122 225.866 62.1872 226.945 62.7951C228.024 63.4029 229.284 63.7162 230.565 63.6953C231.847 63.6744 233.093 63.3203 234.145 62.6777C235.197 62.0352 236.009 61.133 236.477 60.0854C236.945 59.0378 237.049 57.8918 236.776 56.7924C236.502 55.6929 235.863 54.6894 234.94 53.9087C234.323 53.3941 233.596 52.9914 232.801 52.7238C232.006 52.4562 231.159 52.329 230.308 52.3494C229.457 52.3698 228.619 52.5374 227.842 52.8426C227.065 53.1479 226.364 53.5848 225.78 54.1282V54.058Z" fill="#EBEBEB"/>
<path d="M382.21 177.944C383.657 177.179 385.214 176.588 386.84 176.188L387.84 172.158L395.59 172.035L396.71 176.039C398.356 176.391 399.941 176.937 401.42 177.663L405.33 175.406L410.91 180.139L408.49 183.651C409.356 184.926 410.028 186.296 410.49 187.725L415.08 188.603L415.22 195.407L410.66 196.391C410.259 197.833 409.636 199.221 408.81 200.517L411.38 203.959L406 208.805L402 206.672C400.549 207.436 398.989 208.027 397.36 208.428L396.36 212.458L388.61 212.572L387.49 208.586C385.848 208.23 384.268 207.684 382.79 206.962L378.87 209.218L373.29 204.486L375.72 200.974C374.849 199.704 374.176 198.336 373.72 196.909L369.13 196.031L369 189.27L373.55 188.287C373.956 186.842 374.578 185.452 375.4 184.151L372.83 180.718L378.22 175.819L382.22 177.953L382.21 177.944ZM386.34 187.014C385.198 188.053 384.433 189.367 384.142 190.789C383.85 192.211 384.045 193.676 384.702 195C385.359 196.325 386.448 197.448 387.832 198.229C389.217 199.01 390.833 199.413 392.478 199.387C394.123 199.361 395.723 198.908 397.074 198.084C398.426 197.261 399.469 196.104 400.071 194.76C400.674 193.416 400.809 191.945 400.46 190.533C400.111 189.122 399.293 187.833 398.11 186.829C397.324 186.161 396.396 185.636 395.379 185.284C394.361 184.931 393.275 184.759 392.181 184.776C391.088 184.793 390.009 185 389.007 185.384C388.004 185.768 387.098 186.321 386.34 187.014Z" fill="#E0E0E0"/>
<path d="M437 45.4711C437.006 42.6352 436.267 39.8363 434.84 37.2921C433.413 34.7478 431.337 32.5269 428.773 30.802C426.209 29.0771 423.226 27.8947 420.057 27.3468C416.888 26.7989 413.618 26.9002 410.5 27.6429C407.383 28.3856 404.503 29.7497 402.084 31.6289C399.665 33.5082 397.772 35.8521 396.553 38.4783C395.334 41.1045 394.821 43.9422 395.055 46.7708C395.289 49.5993 396.262 52.3424 397.9 54.7867L397.96 54.857C398.76 56.051 399.77 56.9027 400.79 58.1495L413 72.3379C413.354 72.7407 413.809 73.0667 414.329 73.2911C414.849 73.5154 415.421 73.6321 416 73.6321C416.579 73.6321 417.151 73.5154 417.671 73.2911C418.191 73.0667 418.646 72.7407 419 72.3379L431 58.3865C432.09 57.2666 433.108 56.0941 434.05 54.8745L434.1 54.8218C436.004 51.9898 437.006 48.76 437 45.4711ZM416 53.4961C414.173 53.4943 412.387 53.0171 410.869 52.1246C409.351 51.2321 408.168 49.9644 407.471 48.4819C406.773 46.9993 406.591 45.3684 406.949 43.7953C407.306 42.2221 408.187 40.7774 409.48 39.6437C410.773 38.51 412.419 37.7382 414.211 37.4259C416.003 37.1136 417.861 37.2747 419.548 37.889C421.236 38.5033 422.679 39.5431 423.694 40.8771C424.708 42.211 425.25 43.7792 425.25 45.3833C425.25 46.4495 425.011 47.5051 424.546 48.49C424.081 49.4748 423.399 50.3696 422.54 51.123C421.681 51.8765 420.661 52.4739 419.539 52.881C418.417 53.2882 417.214 53.4972 416 53.4961Z" fill="#E0E0E0"/>
<path d="M67.27 310.829C69.3981 309.53 71.0451 307.711 72.0068 305.598C72.9685 303.485 73.2026 301.17 72.68 298.941C71.31 292.628 64.68 288.405 57.99 289.538C51.3 290.67 46.89 296.693 48.26 303.015C48.7074 305.276 49.9087 307.37 51.712 309.031C53.5152 310.692 55.8393 311.847 58.39 312.348C40.17 318.037 45 335.808 45 335.808L89.43 328.398C89.43 328.398 86.43 310.118 67.27 310.829Z" fill="#EBEBEB"/>
<path d="M121.1 386.583L112 384.599C112 384.599 110.11 391.342 102.09 389.735C100.539 389.451 99.1282 388.749 98.0529 387.728C96.9775 386.706 96.2914 385.416 96.09 384.037C95.9008 382.881 96.026 381.703 96.4553 380.598C96.8846 379.493 97.6059 378.493 98.56 377.68C100.74 375.766 104.72 374.458 110.56 376.749L115.65 358.636L106.6 356.678L103.6 367.293C103.6 367.293 90.11 367.425 86.67 379.699C83.37 391.447 94.6 396.768 99.74 397.874C103.68 398.726 117.29 400.789 121.1 386.583Z" fill="#EBEBEB"/>
<path d="M107.532 352.928L116.707 354.913L118.82 347.385L109.644 345.4L107.532 352.928Z" fill="#EBEBEB"/>
<path d="M468.12 413.95C468.12 414.073 370.78 414.178 250.74 414.178C130.7 414.178 33.35 414.038 33.35 413.95C33.35 413.862 130.66 413.722 250.74 413.722C370.82 413.722 468.12 413.818 468.12 413.95Z" fill="black"/>
<path d="M58 192.958H78.89L77.05 201.184H39.42L40.91 194.643L63.56 179.059C69.16 175.125 70.87 172.825 70.87 169.954C70.87 167.083 68.38 165.151 63.56 165.151C61.5256 165.178 59.5233 165.601 57.6973 166.389C55.8713 167.177 54.267 168.31 53 169.708L45.26 164.783C49.26 159.98 56.69 156.802 65.26 156.802C75.77 156.802 82.65 161.727 82.65 168.523C82.65 173.694 79.96 178.058 71.22 183.984L58 192.958Z" fill="#263238"/>
<path d="M128.66 192.027H120.5L118.44 201.184H107.22L109.35 192.027H82.58L84.07 185.231L113.33 157.548H125.89L98.63 183.791H111.69L113.54 175.626H124.26L122.41 183.791H130.58L128.66 192.027Z" fill="#263238"/>
<path d="M161.46 148.698H171.83L135.34 207.418H125L161.46 148.698Z" fill="#263238"/>
<path d="M208.82 157.548L207.33 164.098L180.78 201.184H168L193.48 165.775H177.37L175.73 172.887H165.51L169 157.548H208.82Z" fill="#263238"/>
<path d="M34.77 235.611L37.68 230.764C40.2736 232.219 43.2824 233.001 46.36 233.021C49.2 233.021 50.84 232.239 50.84 230.993C50.84 227.911 38.16 229.614 38.16 222.415C38.16 217.471 42.97 214.232 50.69 214.232C53.9642 214.136 57.2074 214.815 60.08 216.198L57.4 221.01C55.248 219.847 52.767 219.238 50.24 219.254C47.18 219.254 45.54 220.237 45.54 221.484C45.54 224.627 58.22 222.827 58.22 229.895C58.22 234.803 53.3 238.043 45.66 238.043C41.18 238.06 37.12 237.016 34.77 235.611Z" fill="#263238"/>
<path d="M71.37 219.701L70.52 223.565H82.11L81 228.402H69.4L68.46 232.599H82.15L80.95 237.604H60L65.26 214.732H85.69L84.53 219.745L71.37 219.701Z" fill="#263238"/>
<path d="M104.73 230.729L109.17 237.604H101.45L97.57 231.519H93.85L92.47 237.604H85.09L90.3 214.732H101.45C108.12 214.732 111.96 217.454 111.96 222.037C112.012 223.982 111.332 225.889 110.025 227.46C108.718 229.032 106.857 230.181 104.73 230.729ZM100.41 219.798H96.53L95 226.506H99.4C102.65 226.506 104.55 225.136 104.55 222.616C104.51 220.685 102.94 219.798 100.41 219.798Z" fill="#263238"/>
<path d="M144.31 214.732L128 237.604H120.73L114.75 214.732H122.32L126.05 229.658L136.71 214.732H144.31Z" fill="#263238"/>
<path d="M145.87 214.732H153.26L148 237.604H140.62L145.87 214.732Z" fill="#263238"/>
<path d="M154.41 227.981C154.41 220.026 161.08 214.232 170.77 214.232C175.58 214.232 179.5 215.777 181.36 218.551L176 222.283C175.401 221.431 174.552 220.737 173.542 220.274C172.532 219.81 171.398 219.594 170.26 219.649C165.19 219.649 161.83 223.082 161.83 227.595C161.83 230.676 164.22 232.74 168.21 232.74C169.428 232.745 170.632 232.511 171.734 232.055C172.836 231.6 173.809 230.934 174.58 230.106L178.94 233.864C176 236.981 172.16 238.122 167.5 238.122C159.52 238.06 154.41 233.969 154.41 227.981Z" fill="#263238"/>
<path d="M192.13 219.701L191.27 223.565H202.86L201.78 228.402H190.15L189.22 232.599H202.9L201.71 237.604H180.8L186 214.732H206.43L205.28 219.745L192.13 219.701Z" fill="#263238"/>
<path d="M63.15 144.632H48.58C48.58 126.827 56.79 108.634 71.1 94.6743C86.16 80.0029 105.71 71.9253 126.1 71.9253C167.77 71.9253 196.88 98.6341 196.88 136.897H182.34C182.34 105.702 159.75 84.7441 126.13 84.7441C93.17 84.7178 63.15 113.27 63.15 144.632Z" fill="#5ED8FF"/>
<path d="M71.14 141.077C73.47 141.077 75.36 141.279 75.35 141.463C75.34 141.647 73.46 141.788 71.14 141.788C68.82 141.788 66.92 141.621 66.92 141.401C66.92 141.182 68.82 141.041 71.14 141.077Z" fill="#263238"/>
<path d="M81.2 113.033C83.2 114.157 84.55 115.307 84.33 115.615C84.11 115.922 82.33 115.298 80.33 114.236C78.33 113.174 77 112.006 77.21 111.655C77.42 111.304 79.25 111.918 81.2 113.033Z" fill="#263238"/>
<path d="M106.4 93.7085C107.35 95.5786 107.82 97.2205 107.4 97.361C106.98 97.5014 105.91 96.1405 104.89 94.3055C103.87 92.4705 103.4 90.7935 103.89 90.653C104.38 90.5126 105.46 91.812 106.4 93.7085Z" fill="#263238"/>
<path d="M139.6 91.4081C139.02 93.3924 138.23 94.9201 137.84 94.8499C137.45 94.7796 137.53 93.0939 138.03 91.0832C138.53 89.0726 139.31 87.5713 139.79 87.6503C140.27 87.7293 140.18 89.4326 139.6 91.4081Z" fill="#263238"/>
<path d="M166.72 108.143C164.78 109.267 163.03 109.951 162.8 109.671C162.57 109.39 163.92 108.178 165.8 106.975C167.68 105.772 169.44 105.096 169.72 105.447C170 105.799 168.66 107.01 166.72 108.143Z" fill="#263238"/>
<path d="M175.65 135.712C173.33 135.712 171.44 135.554 171.44 135.378C171.44 135.203 173.32 135.027 175.65 135.001C177.98 134.974 179.86 135.124 179.87 135.334C179.88 135.545 178 135.712 175.65 135.712Z" fill="#263238"/>
<path d="M122.15 139.523C121.424 139.527 120.718 139.313 120.15 138.917L95.66 122.235C94.981 121.769 94.5406 121.086 94.4356 120.335C94.3306 119.584 94.5696 118.827 95.1 118.231C95.6304 117.635 96.4088 117.248 97.264 117.156C98.1192 117.064 98.981 117.274 99.66 117.739L122 132.946L152.85 108.073C153.48 107.559 154.316 107.286 155.175 107.314C156.034 107.342 156.845 107.669 157.43 108.222C158.015 108.775 158.325 109.509 158.294 110.263C158.262 111.017 157.89 111.73 157.26 112.243L124.39 138.759C123.781 139.254 122.98 139.528 122.15 139.523Z" fill="#5ED8FF"/>
<path d="M138.76 53.1185H110.68C110.244 53.1185 109.89 53.4291 109.89 53.8122V62.7414C109.89 63.1245 110.244 63.435 110.68 63.435H138.76C139.196 63.435 139.55 63.1245 139.55 62.7414V53.8122C139.55 53.4291 139.196 53.1185 138.76 53.1185Z" fill="#5ED8FF"/>
<path d="M132.38 58.2812H117.05V70.4854H132.38V58.2812Z" fill="#5ED8FF"/>
<path d="M61.4404 84.6912L49.9248 97.2126C49.4773 97.6992 49.5638 98.4123 50.1181 98.8053L57.9917 104.387C58.546 104.78 59.3582 104.704 59.8058 104.218L71.3213 91.6964C71.7689 91.2098 71.6824 90.4967 71.1281 90.1037L63.2545 84.5216C62.7002 84.1286 61.888 84.2046 61.4404 84.6912Z" fill="#5ED8FF"/>
<path d="M138.76 63.435C138.76 63.5843 132.47 63.6984 124.76 63.6984C117.05 63.6984 110.76 63.5843 110.76 63.435C110.76 63.2858 117.04 63.1716 124.76 63.1716C132.48 63.1716 138.76 63.2946 138.76 63.435Z" fill="#263238"/>
<path d="M61.18 102.067C61.02 102.225 58.9 100.803 56.28 99.0731C53.66 97.3434 51.53 95.9386 51.66 95.763C51.79 95.5874 54.14 96.7288 56.79 98.476C59.44 100.223 61.33 101.918 61.18 102.067Z" fill="#263238"/>
<path d="M63.62 98.915C63.46 99.0731 61.34 97.6507 58.72 95.921C56.1 94.1914 53.96 92.7866 54.09 92.611C54.22 92.4354 56.58 93.5768 59.23 95.3328C61.88 97.0888 63.77 98.7658 63.62 98.915Z" fill="#263238"/>
<path d="M66.61 96.2722C66.46 96.4303 64.34 95.0079 61.72 93.2783C59.1 91.5486 57 90.1438 57.09 89.9682C57.18 89.7926 59.58 90.934 62.22 92.69C64.86 94.446 66.77 96.123 66.61 96.2722Z" fill="#263238"/>
<path d="M69.51 93.1202C69.36 93.2783 67.23 91.8559 64.61 90.1262C61.99 88.3966 59.86 86.9918 60 86.8162C60.14 86.6406 62.49 87.782 65.13 89.538C67.77 91.294 69.66 92.971 69.51 93.1202Z" fill="#263238"/>
<path d="M195.207 88.6488L182.812 76.7927C182.33 76.3319 181.514 76.3013 180.989 76.7243L173.534 82.7328C173.009 83.1558 172.974 83.8723 173.456 84.3331L185.851 96.1892C186.333 96.65 187.149 96.6807 187.674 96.2577L195.129 90.2491C195.654 89.8261 195.689 89.1096 195.207 88.6488Z" fill="#5ED8FF"/>
<path d="M175.67 85.8592C175.52 85.7011 177.43 84.1032 179.77 82.0486C182.11 79.9941 184 78.3874 184.18 78.5366C184.36 78.6859 182.73 80.556 180.36 82.593C177.99 84.63 175.81 86.0084 175.67 85.8592Z" fill="#263238"/>
<path d="M178.86 88.4405C178.7 88.2824 180.62 86.6845 182.95 84.63C185.28 82.5754 187.19 80.9687 187.37 81.118C187.55 81.2672 185.91 83.1374 183.55 85.1743C181.19 87.2113 179 88.5897 178.86 88.4405Z" fill="#263238"/>
<path d="M181.39 91.4345C181.23 91.2764 183.15 89.6785 185.48 87.6239C187.81 85.5694 189.72 83.9627 189.9 84.1119C190.08 84.2612 188.44 86.1225 186.07 88.1595C183.7 90.1965 181.53 91.5837 181.39 91.4345Z" fill="#263238"/>
<path d="M184.51 94.446C184.35 94.288 186.27 92.69 188.6 90.6355C190.93 88.581 192.84 86.9742 193.02 87.1235C193.2 87.2727 191.56 89.1429 189.19 91.1798C186.82 93.2168 184.65 94.5689 184.51 94.446Z" fill="#263238"/>
<path d="M113.83 63.4262C113.6 63.4262 113.41 61.1434 113.41 58.3426C113.41 55.5418 113.6 53.2502 113.83 53.2502C114.06 53.2502 114.26 55.533 114.26 58.3426C114.26 61.1522 114.07 63.4262 113.83 63.4262Z" fill="#263238"/>
<path d="M119.33 63.4262C119.1 63.4262 118.91 61.1434 118.91 58.3426C118.91 55.5418 119.1 53.2502 119.33 53.2502C119.56 53.2502 119.75 55.533 119.75 58.3426C119.75 61.1522 119.56 63.4262 119.33 63.4262Z" fill="#263238"/>
<path d="M124.82 63.4262C124.59 63.4262 124.4 61.1434 124.4 58.3426C124.4 55.5418 124.59 53.2502 124.82 53.2502C125.05 53.2502 125.24 55.533 125.24 58.3426C125.24 61.1522 125.06 63.4262 124.82 63.4262Z" fill="#263238"/>
<path d="M130.32 63.4262C130.08 63.4262 129.9 61.1434 129.9 58.3426C129.9 55.5418 130.08 53.2502 130.32 53.2502C130.56 53.2502 130.74 55.533 130.74 58.3426C130.74 61.1522 130.55 63.4262 130.32 63.4262Z" fill="#263238"/>
<path d="M135.81 63.4262C135.58 63.4262 135.39 61.1434 135.39 58.3426C135.39 55.5418 135.58 53.2502 135.81 53.2502C136.04 53.2502 136.23 55.533 136.23 58.3426C136.23 61.1522 136 63.4262 135.81 63.4262Z" fill="#263238"/>
<path d="M128.094 140.257C130.96 137.741 130.96 133.66 128.094 131.144C125.227 128.627 120.58 128.627 117.714 131.144C114.847 133.66 114.847 137.741 117.714 140.257C120.58 142.774 125.227 142.774 128.094 140.257Z" fill="#5ED8FF"/>
<path d="M130.24 135.712C130.17 135.712 130.18 135.141 129.87 134.167C129.425 132.807 128.479 131.615 127.18 130.778C126.139 130.099 124.903 129.687 123.61 129.589C122.318 129.491 121.02 129.71 119.861 130.221C118.703 130.733 117.728 131.518 117.048 132.487C116.367 133.457 116.007 134.573 116.007 135.712C116.007 136.851 116.367 137.967 117.048 138.937C117.728 139.906 118.703 140.691 119.861 141.203C121.02 141.714 122.318 141.933 123.61 141.835C124.903 141.737 126.139 141.325 127.18 140.646C128.477 139.807 129.423 138.616 129.87 137.257C130.18 136.283 130.17 135.712 130.24 135.712C130.31 135.712 130.24 135.852 130.24 136.125C130.256 136.526 130.209 136.928 130.1 137.319C129.741 138.785 128.807 140.093 127.46 141.015C126.454 141.709 125.264 142.167 124.002 142.349C122.739 142.53 121.445 142.427 120.24 142.051C118.748 141.587 117.456 140.728 116.543 139.593C115.629 138.458 115.139 137.102 115.139 135.712C115.139 134.322 115.629 132.966 116.543 131.831C117.456 130.696 118.748 129.837 120.24 129.373C121.445 128.998 122.738 128.895 124 129.075C125.262 129.254 126.452 129.71 127.46 130.4C128.806 131.326 129.74 132.637 130.1 134.105C130.209 134.496 130.256 134.898 130.24 135.299C130.29 135.554 130.27 135.712 130.24 135.712Z" fill="#263238"/>
<path d="M381.27 157.785L393.81 156.029C402.029 161.851 412.432 164.764 422.973 164.194C433.513 163.624 443.43 159.612 450.773 152.948C458.116 146.284 462.355 137.449 462.655 128.18C462.955 118.912 459.295 109.88 452.396 102.86C445.496 95.8401 435.855 91.3404 425.368 90.2453C414.881 89.1502 404.306 91.5389 395.724 96.942C387.141 102.345 381.171 110.371 378.986 119.443C376.802 128.515 378.562 137.977 383.92 145.967L381.27 157.785Z" fill="white"/>
<path d="M381.27 157.785C381.27 157.785 381.27 157.539 381.41 157.039L381.89 154.791C382.32 152.772 382.96 149.813 383.79 145.949C383.792 145.937 383.797 145.925 383.805 145.914C383.813 145.904 383.824 145.895 383.836 145.888C383.849 145.881 383.863 145.877 383.877 145.875C383.892 145.874 383.906 145.875 383.92 145.879C383.929 145.875 383.939 145.872 383.95 145.872C383.961 145.872 383.971 145.875 383.98 145.879L383.8 146.002C380.222 140.698 378.198 134.698 377.91 128.539C377.821 126.622 377.905 124.702 378.16 122.797C378.457 120.757 378.932 118.741 379.58 116.765C381.942 109.602 386.699 103.226 393.235 98.4641C399.772 93.7021 407.786 90.7729 416.24 90.056C422.873 89.5064 429.561 90.3387 435.759 92.4852C441.957 94.6317 447.49 98.0319 451.91 102.409L453.61 104.165C454.14 104.78 454.61 105.421 455.13 106.036C456.117 107.285 457.016 108.587 457.82 109.934C458.26 110.584 458.54 111.304 458.91 111.98C459.28 112.656 459.66 113.332 459.91 114.052C460.503 115.445 460.994 116.871 461.38 118.319C462.918 123.947 462.97 129.809 461.53 135.457C459.601 142.802 455.18 149.46 448.851 154.552C442.521 159.643 434.581 162.929 426.08 163.975C423.744 164.253 421.387 164.374 419.03 164.335C416.841 164.244 414.661 164.038 412.5 163.72C405.62 162.595 399.17 159.975 393.74 156.099H393.83L384.45 157.337L382.06 157.644L381.27 157.741L382.1 157.609L384.51 157.258L393.79 155.906H393.88C399.304 159.718 405.724 162.286 412.56 163.378C414.704 163.691 416.868 163.888 419.04 163.966C421.381 163.999 423.721 163.873 426.04 163.588C434.439 162.522 442.275 159.251 448.521 154.206C454.766 149.161 459.13 142.577 461.04 135.317C462.453 129.734 462.395 123.941 460.87 118.38C460.478 116.952 459.994 115.545 459.42 114.166C459.17 113.455 458.75 112.805 458.42 112.12C458.09 111.435 457.77 110.742 457.34 110.101C456.548 108.77 455.66 107.486 454.68 106.255C454.18 105.64 453.68 105.008 453.18 104.403L451.5 102.647C447.134 98.3222 441.669 94.9616 435.549 92.8367C429.428 90.7119 422.824 89.8826 416.27 90.416C410.468 90.9193 404.848 92.4736 399.766 94.9808C394.683 97.4879 390.248 100.893 386.74 104.982C383.683 108.559 381.399 112.597 380 116.896C379.354 118.852 378.876 120.848 378.57 122.867C378.305 124.757 378.212 126.662 378.29 128.565C378.534 134.681 380.496 140.65 384 145.941C384.019 145.959 384.03 145.982 384.03 146.007C384.03 146.031 384.019 146.055 384 146.072C383.98 146.087 383.955 146.094 383.93 146.094C383.904 146.094 383.88 146.087 383.86 146.072L384.04 146.02C383.16 149.839 382.48 152.772 382.04 154.8C381.81 155.792 381.63 156.556 381.51 157.065C381.39 157.574 381.27 157.785 381.27 157.785Z" fill="#263238"/>
<path d="M433.16 128.231C433.158 127.486 433.408 126.756 433.879 126.136C434.349 125.515 435.019 125.031 435.804 124.744C436.588 124.458 437.451 124.383 438.285 124.528C439.118 124.673 439.883 125.032 440.484 125.559C441.084 126.087 441.493 126.759 441.658 127.49C441.823 128.221 441.738 128.98 441.412 129.668C441.086 130.357 440.534 130.945 439.827 131.358C439.12 131.771 438.289 131.991 437.44 131.989C436.306 131.987 435.219 131.59 434.417 130.886C433.614 130.182 433.163 129.227 433.16 128.231Z" fill="#263238"/>
<path d="M416 128.231C415.998 127.486 416.248 126.757 416.718 126.136C417.188 125.516 417.858 125.032 418.641 124.745C419.425 124.459 420.288 124.383 421.121 124.527C421.954 124.672 422.719 125.03 423.32 125.556C423.921 126.083 424.33 126.754 424.497 127.485C424.663 128.215 424.579 128.973 424.254 129.662C423.93 130.351 423.38 130.94 422.674 131.354C421.969 131.768 421.139 131.989 420.29 131.989C419.154 131.989 418.064 131.594 417.26 130.889C416.456 130.185 416.003 129.229 416 128.231Z" fill="#263238"/>
<path d="M398.89 130.11C398.466 129.465 398.269 128.724 398.324 127.981C398.38 127.237 398.685 126.525 399.201 125.934C399.718 125.343 400.422 124.9 401.226 124.66C402.029 124.421 402.896 124.396 403.715 124.588C404.535 124.781 405.271 125.183 405.83 125.743C406.39 126.303 406.748 126.997 406.858 127.735C406.969 128.474 406.828 129.225 406.453 129.893C406.077 130.561 405.485 131.116 404.75 131.489C403.764 131.986 402.594 132.12 401.496 131.862C400.398 131.603 399.461 130.974 398.89 130.11Z" fill="#263238"/>
<path d="M99.29 263.022C96.66 261.924 92.23 259.633 89.49 258.737C86.7816 257.72 83.7599 257.54 80.92 258.228C79.31 258.702 77.7 259.835 77.69 261.327L88.44 268.29L99.29 265.779V263.022Z" fill="#FF9A6C"/>
<path d="M87.53 262.925C87.53 262.925 68.22 259.247 65 257.798C61.78 256.349 45 248.974 42.19 248.974C39.38 248.974 36.98 249.641 36.47 252.1L40.14 254.602L40.61 255.884L46.89 258.755L48 260.564L64 268.062C64 268.062 80.78 275.542 83.58 275.964C86.38 276.385 100.36 277.412 106.34 281.881L130.34 273.224C130.34 273.224 123.41 264.585 118.07 262.451C113.31 260.555 105.32 260.555 99.73 262.565L87.53 262.925Z" fill="#FFBF9D"/>
<path d="M103.59 277.07C103.59 277.07 134.14 335.562 139.06 347.31C139.06 347.31 173.21 342.376 174.38 325.738L130.38 273.058L103.59 277.07Z" fill="#FFBF9D"/>
<path d="M75.22 264.251C75.22 264.251 75.1 264.251 74.89 264.251C74.5776 264.224 74.2693 264.168 73.97 264.084C72.8748 263.792 71.8108 263.416 70.79 262.961C69.49 262.407 67.98 261.679 66.32 260.862C65.49 260.458 64.62 260.028 63.71 259.615C62.8 259.203 61.81 258.843 60.8 258.456C58.93 257.713 56.9976 257.096 55.02 256.613C53.21 256.218 51.47 255.919 50.16 256.305C49.6519 256.484 49.1909 256.752 48.8056 257.093C48.4203 257.435 48.1189 257.842 47.92 258.29C47.7723 258.632 47.602 258.966 47.41 259.291C47.41 259.291 47.41 259.185 47.46 259.01C47.5269 258.74 47.6171 258.476 47.73 258.219C47.9067 257.81 48.1455 257.423 48.44 257.069C48.8292 256.586 49.3717 256.213 50 255.998C50.7752 255.77 51.5988 255.698 52.41 255.787C53.3171 255.866 54.2163 256.004 55.1 256.2C57.1198 256.667 59.093 257.278 61 258.026C62 258.413 63 258.772 63.93 259.203C64.86 259.633 65.72 260.081 66.55 260.493C68.2 261.327 69.68 262.083 70.95 262.662C71.9341 263.134 72.953 263.548 74 263.9C74.78 264.155 75.22 264.207 75.22 264.251Z" fill="#FF9A6C"/>
<path d="M56.8 255.84C55.8585 255.673 54.947 255.395 54.09 255.015C52.0275 254.16 49.9068 253.418 47.74 252.793C46.5544 252.498 45.3153 252.406 44.09 252.521C43.6011 252.534 43.1203 252.634 42.6768 252.815C42.2333 252.996 41.8363 253.255 41.51 253.575C41.1189 254.051 40.8619 254.601 40.76 255.181C40.7509 255.407 40.7003 255.629 40.61 255.84C40.5632 255.616 40.5632 255.387 40.61 255.164C40.6474 254.537 40.8753 253.931 41.27 253.408C41.5761 253.042 41.9727 252.742 42.43 252.53C42.953 252.312 43.5142 252.172 44.09 252.117C45.3798 251.975 46.6891 252.061 47.94 252.372C50.1376 252.991 52.2664 253.784 54.3 254.742C55.1551 255.069 55.9897 255.435 56.8 255.84Z" fill="#FF9A6C"/>
<path d="M105 261.266C105 261.266 104.73 261.406 104.22 261.565C103.489 261.797 102.744 261.996 101.99 262.162C99.5075 262.729 96.963 263.061 94.4 263.154C91.8376 263.251 89.2707 263.115 86.74 262.75C85.74 262.601 85 262.451 84.47 262.32C84.1865 262.282 83.9124 262.202 83.66 262.083C83.66 262.012 84.86 262.214 86.8 262.425C89.3139 262.698 91.8491 262.789 94.38 262.697C96.9128 262.582 99.4309 262.289 101.91 261.819C103.76 261.503 104.93 261.205 105 261.266Z" fill="#FF9A6C"/>
<path d="M389.44 226.541L345 218.464L334 211.22L275.3 221.159C274.36 222.669 264.85 234.329 264.85 234.329L241.73 241.221C231.904 243.488 223.133 248.401 216.65 255.269C210.485 261.954 205.435 269.374 201.65 277.307C191.25 298.739 176.24 323.499 176.24 323.499L166.83 310.188L127.17 326.589C127.17 326.589 150.4 367.706 158.09 373.58C166.64 380.103 186.3 380.858 199.89 368.689C208.08 361.349 231.75 332.34 236.68 325.079L244 355.44L250.73 390.095L239.85 413.95H398.65L392.08 391.403C392.08 391.403 398.55 332.639 400.34 321.699C404.55 295.894 389.44 226.541 389.44 226.541Z" fill="#5ED8FF"/>
<path d="M389.44 226.541C389.44 226.541 421.24 234.373 428.24 262.126C432.48 278.94 446.88 326.87 451.95 366.327C454.95 389.788 454.87 411.465 454.95 413.95H406.15L385.47 234.373L389.44 226.541Z" fill="#5ED8FF"/>
<path d="M307.88 250.37C307.88 250.37 307.88 250.475 307.75 250.66L307.3 251.468C306.9 252.179 306.3 253.224 305.65 254.549C304.24 257.183 302.58 261.09 299.9 265.454L299.77 265.674L299.55 265.507C296.25 263.04 292.67 260.072 288.97 256.867C282.42 251.16 276.68 245.848 272.44 242.082L267.39 237.63L266 236.427C265.831 236.294 265.677 236.147 265.54 235.988C265.733 236.095 265.911 236.222 266.07 236.366L267.51 237.507C268.75 238.508 270.51 239.992 272.68 241.853C276.99 245.567 282.78 250.844 289.31 256.542C293.01 259.747 296.57 262.688 299.83 265.199L299.47 265.252C302.17 260.95 303.89 257.06 305.37 254.444C306.1 253.118 306.71 252.1 307.15 251.406C307.35 251.099 307.52 250.835 307.66 250.633C307.722 250.539 307.796 250.451 307.88 250.37Z" fill="black"/>
<path d="M345.62 219.456C345.617 219.663 345.587 219.869 345.53 220.07C345.43 220.509 345.31 221.089 345.16 221.826C344.8 223.336 344.16 225.514 343.34 228.165C341.61 233.433 338.81 240.712 335.34 248.57C333.51 252.732 331.71 256.665 330.03 260.151L329.9 260.423L329.65 260.23C325.12 256.718 321.06 253.952 318.31 251.898C316.93 250.87 315.85 250.045 315.12 249.466L314.31 248.798C314.12 248.64 314.03 248.561 314.04 248.553C314.155 248.605 314.263 248.67 314.36 248.746L315.22 249.369L318.49 251.705C321.3 253.706 325.39 256.419 329.97 259.914L329.59 259.993C331.24 256.481 333.03 252.565 334.85 248.412C338.28 240.51 341.13 233.354 342.94 228.078C343.84 225.444 344.5 223.284 344.94 221.782C345.13 221.071 345.29 220.5 345.41 220.026C345.464 219.832 345.534 219.641 345.62 219.456Z" fill="black"/>
<path d="M242.75 351.551C242.708 351.491 242.678 351.426 242.66 351.358L242.45 350.761C242.27 350.175 242.02 349.403 241.7 348.443C241.36 347.442 241.03 346.204 240.63 344.764C240.23 343.324 239.8 341.673 239.37 339.847C237.158 330.321 235.601 320.686 234.71 310.996C233.58 299.643 233.33 289.327 233.39 281.873C233.39 278.141 233.5 275.121 233.62 273.04C233.68 272.022 233.72 271.223 233.75 270.634C233.75 270.388 233.75 270.178 233.8 270.011C233.79 269.941 233.79 269.87 233.8 269.8C233.808 269.873 233.808 269.947 233.8 270.02V270.643C233.8 271.231 233.8 272.03 233.8 273.04C233.8 275.13 233.72 278.141 233.74 281.873C233.74 289.318 234.08 299.626 235.21 310.952C236.109 320.628 237.612 330.254 239.71 339.786C240.12 341.612 240.5 343.298 240.89 344.702C241.28 346.107 241.57 347.398 241.89 348.399L242.55 350.734L242.7 351.34C242.75 351.481 242.76 351.551 242.75 351.551Z" fill="black"/>
<path d="M392.08 257.324C392.139 257.4 392.187 257.482 392.22 257.57C392.31 257.754 392.43 257.991 392.57 258.29C392.89 258.957 393.32 259.896 393.88 261.082C394.16 261.696 394.49 262.364 394.81 263.11L395.76 265.568C396.1 266.446 396.46 267.403 396.85 268.404C397.24 269.405 397.5 270.503 397.85 271.635C400.85 280.67 402.35 293.743 401.49 308.046C400.63 322.348 398.71 335.264 397.49 344.536C396.88 349.171 396.38 352.938 396.03 355.572C395.86 356.845 395.72 357.855 395.62 358.566L395.5 359.347C395.493 359.437 395.473 359.526 395.44 359.611C395.427 359.523 395.427 359.435 395.44 359.347L395.51 358.557C395.59 357.837 395.7 356.801 395.83 355.554C396.11 352.92 396.55 349.163 397.12 344.5C398.21 335.176 400.05 322.305 400.93 308.028C401.81 293.752 400.33 280.749 397.46 271.714L396.46 268.483L395.46 265.656C395.14 264.778 394.84 263.944 394.56 263.189C394.28 262.434 393.94 261.758 393.67 261.143C393.15 259.94 392.75 259.001 392.45 258.325C392.33 258.017 392.23 257.78 392.15 257.587C392.111 257.503 392.088 257.414 392.08 257.324Z" fill="black"/>
<path d="M176.5 353.395C176.36 353.395 176.19 346.704 176.13 338.469C176.07 330.233 176.13 323.543 176.28 323.543C176.43 323.543 176.59 330.233 176.65 338.469C176.71 346.704 176.65 353.395 176.5 353.395Z" fill="black"/>
<path d="M320.8 393.914V393.545C320.8 393.282 320.88 392.931 320.94 392.474C321.08 391.509 321.27 390.13 321.52 388.356C321.65 387.478 321.79 386.469 321.95 385.389C322.11 384.309 322.23 383.115 322.38 381.877C322.67 379.331 323.07 376.442 323.38 373.229C323.53 371.631 323.68 369.945 323.85 368.198C324.02 366.45 324.1 364.624 324.23 362.736C324.53 358.961 324.66 354.913 324.83 350.664C325.05 342.156 325.02 332.797 324.52 322.989C324.02 313.182 323 303.858 321.87 295.403C321.24 291.179 320.69 287.167 319.98 283.435C319.65 281.565 319.36 279.757 318.98 278.027C318.6 276.297 318.29 274.638 317.98 273.049C317.37 269.879 316.67 267.034 316.1 264.523C315.81 263.268 315.55 262.1 315.3 261.011C315.05 259.923 314.78 258.966 314.55 258.088L313.55 254.04C313.45 253.592 313.36 253.241 313.3 252.986C313.24 252.732 313.23 252.618 313.23 252.618C313.281 252.732 313.321 252.849 313.35 252.969L313.66 254.014L314.77 258.052L315.56 260.967C315.82 262.039 316.1 263.198 316.41 264.479C317 266.982 317.73 269.826 318.36 272.996C318.693 274.582 319.027 276.242 319.36 277.974C319.72 279.73 320.01 281.486 320.36 283.383C321.08 287.123 321.65 291.136 322.3 295.359C323.45 303.823 324.43 313.156 324.99 322.972C325.55 332.788 325.51 342.165 325.26 350.682C325.07 354.94 324.93 358.987 324.61 362.763C324.47 364.65 324.37 366.477 324.2 368.233C324.03 369.989 323.85 371.666 323.69 373.272C323.41 376.486 322.98 379.418 322.69 381.912C322.52 383.185 322.36 384.37 322.22 385.424C322.08 386.478 321.89 387.496 321.74 388.392C321.45 390.148 321.22 391.535 321.07 392.492L320.88 393.563C320.865 393.682 320.838 393.799 320.8 393.914Z" fill="black"/>
<path d="M341.94 299.143H342.14L342.77 299.081L345.22 298.836L354.59 297.958L387.94 294.92H388.19V295.139C388.44 303.998 388.74 314.025 389.05 324.658V324.754L388.98 324.816L384.98 328.617L370.4 342.297L370.27 342.42L370.1 342.34L345.53 331.629L345.42 331.585V331.506C344.35 321.716 343.42 313.621 342.85 307.94C342.55 305.148 342.32 302.953 342.16 301.434C342.09 300.706 342.03 300.144 341.99 299.731C341.95 299.318 341.99 299.169 341.99 299.169C341.99 299.169 341.99 299.38 342.08 299.766C342.17 300.153 342.21 300.758 342.31 301.522C342.49 303.059 342.76 305.263 343.11 308.072C343.78 313.709 344.73 321.76 345.89 331.497L345.77 331.348L370.37 341.998L370.08 342.042L384.63 328.31L388.63 324.517L388.56 324.675C388.27 314.043 387.99 304.025 387.75 295.157L388.01 295.35L354.76 298.142L345.33 298.915L342.82 299.108L342.17 299.16L341.94 299.143Z" fill="black"/>
<path d="M388.25 305.324C387.683 305.462 387.105 305.559 386.52 305.614C385.4 305.772 383.78 305.974 381.77 306.202C377.77 306.65 372.18 307.168 366.03 307.686L350.27 309.038L345.5 309.477C344.921 309.559 344.336 309.597 343.75 309.591C344.317 309.453 344.895 309.356 345.48 309.301C346.6 309.143 348.22 308.941 350.23 308.713C354.23 308.265 359.82 307.747 365.98 307.229L381.73 305.877L386.5 305.438C387.079 305.357 387.664 305.318 388.25 305.324Z" fill="black"/>
<g opacity="0.3">
<path d="M397.91 339.856L399.59 357.793C403.3 342.428 409.13 325.913 408.22 310.232C407.31 294.551 405.63 279.546 395.57 265.349C399.944 276.038 401.95 287.362 401.48 298.713C400.56 317.063 397.91 339.856 397.91 339.856Z" fill="black"/>
</g>
<path d="M169.88 306.465C169.34 305.385 168.384 304.505 167.18 303.981C165.78 303.559 164.26 304.156 162.93 304.736L126.65 320.592C124.26 321.637 121.65 322.875 120.77 325.07C119.62 327.88 121.77 330.847 123.77 333.262C127.11 337.292 131.11 341.682 136.77 342.253L167.98 323.463C171.79 322.972 174.16 319.24 173.98 315.86C173.8 312.48 171.82 309.398 169.88 306.465Z" fill="#5ED8FF"/>
<path d="M173.82 317.95C173.728 318.063 173.62 318.166 173.5 318.257L172.5 319.074C171.64 319.776 170.37 320.768 168.78 321.962C165.59 324.359 161.06 327.546 155.78 330.795C150.5 334.043 145.67 336.721 142 338.53C140.18 339.452 138.69 340.172 137.65 340.646L136.45 341.182C136.17 341.304 136.02 341.357 136.01 341.34C136.126 341.244 136.257 341.164 136.4 341.103L137.55 340.488L141.81 338.249C145.4 336.353 150.29 333.631 155.51 330.391C160.73 327.151 165.29 324.017 168.51 321.69L172.34 318.907L173.34 318.16C173.68 318.02 173.81 317.932 173.82 317.95Z" fill="black"/>
<g opacity="0.3">
<path d="M345.15 221.466C340.88 233.916 334.9 247.999 329.85 260.098C325.55 256.894 319.53 252.653 315.22 249.439C318.929 255.9 323.383 262.011 328.51 267.675C329.11 268.334 329.91 269.054 330.84 268.896C331.77 268.738 332.19 267.895 332.51 267.14L340.38 248.851C344.06 240.299 347.61 230.325 345.15 221.466Z" fill="black"/>
</g>
<path d="M277.65 86.0172C290.65 82.7335 302.81 86.0172 314.8 91.4784C326.79 96.9395 336.46 105.957 342.72 116.449C349.32 127.503 352.24 140.383 349.85 152.684C347.46 164.985 339.54 176.574 327.68 183.414C311.47 192.791 289.13 192.299 272.44 183.616C255.75 174.932 244.76 158.926 241.85 142.077C239.85 130.47 241.47 118.231 247.64 107.835C253.81 97.44 264.72 89.0112 277.64 86.0084" fill="#263238"/>
<path d="M320.33 121.743C317.82 117.502 317.93 112.471 316.56 107.835C313.56 97.6419 302.96 90.2755 291.44 87.3342C280.73 84.5861 268.34 86.6494 256.44 91.373C248.3 94.6128 240.89 99.5823 236.03 106.167C232.851 110.581 230.921 115.598 230.399 120.8C229.877 126.002 230.779 131.238 233.03 136.072L292.42 122.358C298.6 125.87 304.93 129.496 312.08 131.138C314.16 131.703 316.37 131.79 318.5 131.392C319.557 131.173 320.519 130.691 321.273 130.005C322.027 129.318 322.539 128.456 322.75 127.52C323 125.431 321.42 123.596 320.33 121.743Z" fill="#263238"/>
<path d="M334.5 214.205L319.17 119.539C318.49 115.061 316.17 110.496 311.04 110.707L257.04 106.141C240.12 106.826 232.18 126.335 233.68 141.112C235.35 157.565 238.12 177.593 242.43 189.463C251.1 213.318 272.99 213.564 272.99 213.564C272.99 213.564 274.32 218.305 275.99 227.173L310.99 247.613L334.5 214.205Z" fill="#FFBF9D"/>
<path d="M246.73 159.119C246.864 159.938 247.358 160.678 248.105 161.182C248.853 161.686 249.795 161.913 250.73 161.815C251.19 161.786 251.639 161.677 252.05 161.494C252.461 161.31 252.826 161.056 253.123 160.747C253.421 160.438 253.644 160.079 253.781 159.692C253.918 159.306 253.965 158.899 253.92 158.496C253.783 157.678 253.29 156.938 252.543 156.433C251.797 155.929 250.856 155.699 249.92 155.792C249.46 155.823 249.012 155.934 248.601 156.118C248.191 156.303 247.827 156.558 247.529 156.868C247.232 157.178 247.009 157.536 246.872 157.923C246.734 158.31 246.686 158.716 246.73 159.119Z" fill="#263238"/>
<path d="M240.43 150.822C240.94 151.174 243.34 149.066 247.19 148.548C251.04 148.03 254.14 149.356 254.49 148.882C254.66 148.671 254.08 148.004 252.72 147.372C250.88 146.588 248.81 146.318 246.79 146.599C244.789 146.86 242.936 147.675 241.5 148.926C240.45 149.874 240.18 150.638 240.43 150.822Z" fill="#263238"/>
<path d="M282.26 154.045C282.392 154.865 282.884 155.607 283.632 156.113C284.38 156.618 285.323 156.847 286.26 156.749C286.72 156.72 287.169 156.611 287.58 156.428C287.991 156.244 288.356 155.99 288.653 155.681C288.951 155.372 289.174 155.013 289.311 154.626C289.448 154.24 289.495 153.833 289.45 153.43C289.318 152.61 288.826 151.867 288.078 151.362C287.33 150.856 286.387 150.628 285.45 150.726C284.991 150.756 284.542 150.866 284.132 151.049C283.722 151.233 283.357 151.487 283.06 151.796C282.763 152.105 282.539 152.463 282.402 152.85C282.264 153.236 282.216 153.642 282.26 154.045Z" fill="#263238"/>
<path d="M277 146.353C277.51 146.705 279.92 144.597 283.76 144.079C287.6 143.561 290.71 144.887 291.06 144.413C291.23 144.202 290.65 143.535 289.29 142.903C287.447 142.117 285.373 141.847 283.35 142.13C281.324 142.392 279.448 143.22 278 144.492C277 145.37 276.73 146.248 277 146.353Z" fill="#263238"/>
<path d="M268.72 173.282C268.72 173.088 266.25 173.045 262.31 173.132C261.31 173.132 260.31 173.132 260.08 172.562C259.85 171.991 259.99 170.99 260.29 169.928C260.85 167.721 261.44 165.406 262.06 162.983C264.46 153.096 266.06 145.028 265.59 144.949C265.12 144.87 262.82 152.851 260.41 162.684C259.84 165.116 259.29 167.443 258.78 169.664C258.58 170.692 258.13 171.886 258.86 173.106C259.052 173.393 259.317 173.637 259.635 173.818C259.952 173.999 260.314 174.113 260.69 174.151C261.254 174.218 261.826 174.218 262.39 174.151C266.32 173.782 268.74 173.466 268.72 173.282Z" fill="#263238"/>
<path d="M273 213.564C286.148 211.977 298.536 207.214 308.78 199.806C308.78 199.806 300.05 218.99 274.78 220.922L273 213.564Z" fill="#FF9A6C"/>
<path d="M271.76 181.201C272.35 180.295 273.193 179.536 274.209 178.996C275.226 178.455 276.382 178.15 277.57 178.111C278.433 178.067 279.297 178.177 280.11 178.436C280.923 178.694 281.668 179.094 282.3 179.612C282.911 180.107 283.335 180.754 283.514 181.467C283.693 182.18 283.618 182.924 283.3 183.598C282.49 185.012 280.37 185.6 278.46 185.354C276.547 185.034 274.725 184.384 273.1 183.44C272.616 183.222 272.185 182.924 271.83 182.562C271.656 182.395 271.542 182.187 271.503 181.964C271.464 181.74 271.501 181.511 271.61 181.307" fill="#FF9A6C"/>
<path d="M280.44 174.098C279.8 174.151 280.44 177.821 277.31 180.894C274.18 183.967 269.69 184.169 269.74 184.678C269.74 184.924 270.86 185.258 272.74 185.056C275.191 184.757 277.443 183.71 279.1 182.097C280.69 180.552 281.533 178.524 281.45 176.442C281.34 174.888 280.72 174.045 280.44 174.098Z" fill="#263238"/>
<path d="M275.9 136.274C276.44 137.152 280.2 136.195 284.79 136.063C289.38 135.931 293.22 136.529 293.67 135.624C293.87 135.194 293.09 134.421 291.46 133.728C289.308 132.903 286.971 132.518 284.625 132.604C282.28 132.689 279.987 133.241 277.92 134.219C276.37 135.027 275.66 135.861 275.9 136.274Z" fill="#263238"/>
<path d="M239 135.923C239.81 136.599 242.32 135.449 245.5 134.983C248.68 134.518 251.5 134.711 251.94 133.824C252.15 133.394 251.59 132.692 250.29 132.121C248.556 131.466 246.64 131.276 244.784 131.576C242.928 131.876 241.214 132.652 239.86 133.807C238.85 134.746 238.62 135.589 239 135.923Z" fill="#263238"/>
<path d="M329.07 113.639C321.79 100.083 295.45 83.2515 278.73 86.263L253.94 103.612C255.429 107.549 258.101 111.06 261.674 113.774C265.247 116.487 269.589 118.303 274.24 119.03C279.19 119.75 284.99 119.425 288.37 122.691C291.75 125.957 290.94 131.577 294.21 135.045C298.74 139.856 308.9 138.416 312.56 143.772C314.17 146.108 313.98 149.145 315.62 151.463C317.82 154.545 327.91 157.609 331.62 156.046C335.33 154.484 334.49 148.654 335.3 145.431C336.69 139.944 335.37 137.336 334.21 134.492C331.5 127.749 332.55 120.101 329.07 113.639Z" fill="#263238"/>
<path d="M320.55 160.296C320.24 158.47 321.89 153.86 323.89 153.272C329.23 151.797 339.16 150.858 341.37 163.044C344.37 179.726 324.73 178.927 324.6 178.453C324.47 177.979 321.63 166.565 320.55 160.296Z" fill="#FFBF9D"/>
<path d="M329.25 171.341C329.33 171.271 329.62 171.499 330.25 171.64C331.089 171.83 331.98 171.723 332.73 171.341C334.61 170.419 335.79 167.39 335.34 164.37C335.128 162.936 334.554 161.563 333.66 160.349C333.389 159.853 332.984 159.422 332.48 159.095C331.977 158.767 331.39 158.553 330.77 158.47C330.374 158.434 329.977 158.521 329.648 158.717C329.319 158.913 329.079 159.205 328.97 159.541C328.8 160.041 328.97 160.357 328.88 160.419C328.79 160.48 328.43 160.199 328.45 159.488C328.483 159.063 328.681 158.66 329.01 158.347C329.467 157.924 330.097 157.678 330.76 157.662C332.24 157.548 333.76 158.54 334.68 159.76C335.751 161.091 336.437 162.631 336.68 164.247C337.17 167.619 335.78 171.034 333.16 172.149C332.676 172.351 332.146 172.456 331.61 172.456C331.074 172.456 330.544 172.351 330.06 172.149C329.36 171.71 329.19 171.376 329.25 171.341Z" fill="#FF9A6C"/>
<path d="M258.82 98.0019C257.95 105.026 247.28 114.903 242.82 120.725C234.25 131.831 232.73 135.387 235.75 158.004C230.07 150.656 225.51 143.351 224.75 134.492C223.99 125.633 226.53 116.44 232.69 109.398C238.85 102.357 248.76 97.7209 258.87 97.9843" fill="#263238"/>
<path d="M304.13 74.1818C308.13 70.3098 313.91 67.7899 319.91 66.4729C328.46 64.594 337.85 65.1032 345.63 68.3694C353.41 71.6356 359.43 77.764 361 84.788C361.772 88.3962 361.409 92.1208 359.95 95.5614C358.491 99.0019 355.991 102.028 352.72 104.315C357.169 108.102 362.592 110.89 368.53 112.445C366.91 114.579 363.92 115.825 360.9 116.273C357.864 116.606 354.791 116.589 351.76 116.22C353.829 118.935 356.925 120.919 360.5 121.822C355.579 122.82 350.446 122.671 345.61 121.392C340.88 120.133 336.353 118.348 332.14 116.08C317.51 108.626 309.44 102.093 299.56 90.6179C298.27 85.666 300.1 78.0625 304.13 74.1818Z" fill="#263238"/>
<path d="M335.67 109.372C324.93 95.5962 311.26 88.2298 298.89 85.9382Z" fill="#263238"/>
<path d="M298.89 85.9382C299.457 86.1374 300.042 86.2931 300.64 86.4035C301.77 86.6845 303.4 87.1147 305.36 87.7732C310.463 89.5137 315.26 91.8784 319.61 94.7972C323.96 97.7089 327.925 101.04 331.43 104.727C332.75 106.159 333.82 107.361 334.51 108.152C334.854 108.599 335.242 109.02 335.67 109.407C335.381 108.927 335.046 108.469 334.67 108.037C334.03 107.159 333.01 105.974 331.72 104.525C328.303 100.727 324.367 97.3124 320 94.3582C315.598 91.4101 310.708 89.0709 305.5 87.422C303.929 86.9313 302.326 86.5238 300.7 86.2016C300.106 86.0715 299.5 85.9834 298.89 85.9382Z" fill="#455A64"/>
<path d="M348.47 121.111L348.23 121.181L347.53 121.427C346.93 121.655 346.03 121.954 344.85 122.305C341.515 123.285 338.056 123.904 334.55 124.149C329.352 124.488 324.125 124.193 319.02 123.271C312.767 122.117 306.653 120.444 300.76 118.275C294.46 116.018 288.52 113.701 283.23 111.427C278.531 109.43 274.009 107.13 269.7 104.543C266.803 102.791 264.068 100.842 261.52 98.7131C260.6 97.9668 259.94 97.3434 259.52 96.9571L258.99 96.4917C258.87 96.3952 258.81 96.3425 258.8 96.3513C258.79 96.36 258.8 96.4127 258.95 96.5269L259.44 97.0273C259.87 97.4663 260.51 98.1073 261.44 98.8799C263.946 101.071 266.659 103.071 269.55 104.859C273.844 107.507 278.368 109.856 283.08 111.883C288.38 114.192 294.31 116.528 300.62 118.793C306.55 120.969 312.705 122.636 319 123.771C324.156 124.675 329.432 124.929 334.67 124.526C338.171 124.245 341.618 123.579 344.93 122.542C346.1 122.147 346.99 121.822 347.58 121.559L348.25 121.269C348.4 121.155 348.48 121.12 348.47 121.111Z" fill="#455A64"/>
<path d="M291.81 203.792L290 200.684C290.13 200.623 302.69 194.968 307.52 191.404C318.9 183.01 329.36 169.603 329.47 169.454L332.77 171.429C332.33 172 321.9 185.372 310.09 194.081C304.89 197.892 292.34 203.555 291.81 203.792Z" fill="#455A64"/>
<path d="M301.16 194.09C301.16 194.09 284 200.816 284 202.308C284 203.801 286.72 206.786 288.76 206.637C290.8 206.488 296.7 203.573 297.76 202.379C298.82 201.184 300.7 198.111 302.76 196.619L301.16 194.09Z" fill="#263238"/>
<path d="M332.63 148.882L328.63 148.715C328.775 138.588 326.788 128.524 322.77 119.03C314.09 99.3979 297.4 88.8619 273.18 87.703C270.977 87.6181 268.77 87.7507 266.6 88.0981L268.35 86.6406C269.198 85.9378 270.184 85.3755 271.26 84.9812C272.735 84.4398 274.338 84.2228 275.93 84.349C306.51 86.6757 320.33 103.744 326.54 117.862C330.771 127.775 332.837 138.298 332.63 148.882Z" fill="#455A64"/>
<path d="M330.63 180.815C337.627 180.815 343.3 173.653 343.3 164.818C343.3 155.983 337.627 148.821 330.63 148.821C323.633 148.821 317.96 155.983 317.96 164.818C317.96 173.653 323.633 180.815 330.63 180.815Z" fill="#455A64"/>
<path d="M343.3 164.818C343.288 164.745 343.288 164.671 343.3 164.598C343.3 164.423 343.3 164.212 343.24 163.948C343.195 163.119 343.098 162.293 342.95 161.473C342.433 158.448 341.092 155.577 339.04 153.105C338.349 152.306 337.55 151.584 336.66 150.954C335.691 150.284 334.599 149.764 333.43 149.418C332.179 149.062 330.855 148.951 329.55 149.093C328.17 149.275 326.848 149.708 325.67 150.366C323.174 151.89 321.247 154.029 320.13 156.512C318.881 159.156 318.238 161.99 318.238 164.853C318.238 167.715 318.881 170.55 320.13 173.194C321.246 175.678 323.173 177.816 325.67 179.34C326.848 179.997 328.17 180.431 329.55 180.613C330.855 180.751 332.178 180.64 333.43 180.288C334.599 179.941 335.691 179.422 336.66 178.752C337.547 178.12 338.346 177.398 339.04 176.6C341.092 174.128 342.433 171.258 342.95 168.233C343.098 167.413 343.195 166.586 343.24 165.757C343.24 165.494 343.24 165.283 343.3 165.107C343.287 165.035 343.287 164.961 343.3 164.888C343.316 164.96 343.316 165.035 343.3 165.107V165.757C343.289 166.594 343.223 167.43 343.1 168.259C342.653 171.338 341.34 174.271 339.28 176.794C338.58 177.621 337.767 178.37 336.86 179.024C335.86 179.733 334.726 180.283 333.51 180.648C332.199 181.026 330.81 181.149 329.44 181.008C327.993 180.826 326.606 180.377 325.37 179.691C322.783 178.145 320.78 175.956 319.62 173.405C318.333 170.707 317.67 167.812 317.67 164.888C317.67 161.964 318.333 159.068 319.62 156.371C320.78 153.82 322.783 151.63 325.37 150.085C326.606 149.399 327.993 148.95 329.44 148.768C330.81 148.627 332.199 148.75 333.51 149.128C334.726 149.493 335.86 150.043 336.86 150.752C337.769 151.404 338.582 152.153 339.28 152.982C341.343 155.503 342.656 158.437 343.1 161.516C343.222 162.343 343.289 163.176 343.3 164.01V164.668C343.307 164.718 343.307 164.768 343.3 164.818Z" fill="#263238"/>
<path d="M332.58 174.107C337.037 174.107 340.65 169.547 340.65 163.922C340.65 158.297 337.037 153.737 332.58 153.737C328.123 153.737 324.51 158.297 324.51 163.922C324.51 169.547 328.123 174.107 332.58 174.107Z" fill="#455A64"/>
<path d="M340.65 163.922C340.59 163.922 340.65 163.149 340.36 161.789C340.025 159.881 339.167 158.073 337.86 156.521C336.971 155.456 335.738 154.651 334.32 154.211C333.533 153.989 332.7 153.92 331.88 154.01C331.015 154.123 330.187 154.395 329.45 154.808C327.881 155.768 326.667 157.112 325.96 158.672C325.169 160.341 324.764 162.132 324.77 163.94C324.76 165.748 325.165 167.54 325.96 169.208C326.667 170.768 327.881 172.111 329.45 173.071C330.187 173.484 331.015 173.757 331.88 173.87C332.7 173.959 333.533 173.89 334.32 173.668C335.738 173.228 336.971 172.423 337.86 171.359C339.167 169.807 340.025 167.999 340.36 166.091C340.61 164.73 340.59 163.957 340.65 163.966C340.663 164.15 340.663 164.335 340.65 164.519C340.649 165.054 340.609 165.587 340.53 166.117C340.265 168.087 339.436 169.966 338.12 171.578C337.204 172.716 335.912 173.58 334.42 174.054C333.578 174.306 332.683 174.39 331.8 174.3C330.863 174.172 329.967 173.873 329.17 173.422C327.508 172.432 326.219 171.029 325.47 169.392C324.645 167.664 324.22 165.809 324.22 163.935C324.22 162.062 324.645 160.207 325.47 158.479C326.219 156.842 327.508 155.439 329.17 154.449C329.964 153.999 330.857 153.7 331.79 153.571C332.677 153.481 333.575 153.565 334.42 153.816C335.912 154.291 337.204 155.155 338.12 156.292C339.436 157.905 340.265 159.784 340.53 161.753C340.609 162.283 340.649 162.817 340.65 163.351C340.663 163.541 340.663 163.732 340.65 163.922Z" fill="#263238"/>
<path d="M333.14 171.245C336.343 171.245 338.94 167.966 338.94 163.922C338.94 159.878 336.343 156.6 333.14 156.6C329.937 156.6 327.34 159.878 327.34 163.922C327.34 167.966 329.937 171.245 333.14 171.245Z" fill="#455A64"/>
<path d="M338.94 163.922C338.89 163.922 338.89 163.369 338.71 162.394C338.453 161.024 337.829 159.728 336.89 158.61C336.258 157.853 335.379 157.28 334.37 156.968C333.795 156.807 333.186 156.762 332.589 156.836C331.991 156.911 331.421 157.103 330.92 157.399C328.75 158.654 327.6 161.288 327.59 163.913C327.58 166.539 328.75 169.181 330.92 170.437C331.421 170.732 331.991 170.925 332.589 170.999C333.186 171.074 333.795 171.029 334.37 170.867C335.379 170.555 336.258 169.983 336.89 169.225C337.829 168.108 338.453 166.811 338.71 165.441C338.89 164.466 338.89 163.913 338.94 163.922C338.964 164.053 338.964 164.186 338.94 164.317C338.945 164.702 338.922 165.086 338.87 165.467C338.69 166.894 338.098 168.257 337.15 169.427C336.475 170.237 335.537 170.849 334.46 171.183C333.846 171.364 333.194 171.427 332.55 171.368C331.868 171.285 331.213 171.075 330.63 170.753C329.42 170.034 328.483 169.012 327.94 167.82C327.338 166.57 327.028 165.227 327.028 163.869C327.028 162.512 327.338 161.169 327.94 159.918C328.483 158.727 329.42 157.705 330.63 156.986C331.213 156.664 331.868 156.454 332.55 156.371C333.194 156.312 333.846 156.375 334.46 156.556C335.537 156.89 336.475 157.502 337.15 158.312C338.098 159.481 338.69 160.844 338.87 162.271C338.922 162.653 338.945 163.037 338.94 163.422C338.976 163.587 338.976 163.757 338.94 163.922Z" fill="#263238"/>
</g>
<defs>
<filter id="filter0_d_3_207" x="-4" y="0.5" width="508" height="447" filterUnits="userSpaceOnUse" color-interpolation-filters="sRGB">
<feFlood flood-opacity="0" result="BackgroundImageFix"/>
<feColorMatrix in="SourceAlpha" type="matrix" values="0 0 0 0 0 0 0 0 0 0 0 0 0 0 0 0 0 0 127 0" result="hardAlpha"/>
<feOffset dy="4"/>
<feGaussianBlur stdDeviation="2"/>
<feComposite in2="hardAlpha" operator="out"/>
<feColorMatrix type="matrix" values="0 0 0 0 0 0 0 0 0 0 0 0 0 0 0 0 0 0 0.25 0"/>
<feBlend mode="normal" in2="BackgroundImageFix" result="effect1_dropShadow_3_207"/>
<feBlend mode="normal" in="SourceGraphic" in2="effect1_dropShadow_3_207" result="shape"/>
</filter>
</defs>
</svg>
